<svg xmlns="http://www.w3.org/2000/svg" width="32" height="32" viewBox="0 0 32 32"><defs><style>.a{fill-rule:evenodd;}</style></defs><path class="a" d="M969.522-402.281l.023-.019,14.22-11.152a1.928,1.928,0,0,1,2.336,0l7.771,6.095a1.506,1.506,0,0,1,.178,2.269,1.92,1.92,0,0,1-2.515.16l-6.6-5.179-12.44,9.755v15.29h24.876v-16.024a1.7,1.7,0,0,1,1.781-1.608,1.7,1.7,0,0,1,1.781,1.608v17.632a1.7,1.7,0,0,1-1.781,1.608H970.712a1.7,1.7,0,0,1-1.781-1.608v-17.714l0-.027v-.01l0-.045,0-.026a1.48,1.48,0,0,1,.1-.374l.027-.062,0-.007,0,0,.015-.03.015-.03,0,0,0-.007.034-.059a1.6,1.6,0,0,1,.246-.313l.019-.019.036-.032.005,0,0,0,.021-.019.031-.025.008-.006Z" transform="translate(-968.931 413.846)"/></svg>