<svg xmlns="http://www.w3.org/2000/svg" width="36" height="36.3" viewBox="0 0 36 36.3"><defs><style>.a{fill:#de0000;}</style></defs><path class="a" d="M22.5,26.1V5.8h3V26.1Zm1.5,16a17.292,17.292,0,0,1-6.975-1.425,18.267,18.267,0,0,1-9.6-9.6A17.292,17.292,0,0,1,6,24.1a16.783,16.783,0,0,1,1.7-7.475,19.539,19.539,0,0,1,4.8-6.175l2.1,2.1a15.284,15.284,0,0,0-4.125,5.125A14.265,14.265,0,0,0,9,24.1a14.465,14.465,0,0,0,4.375,10.625A14.465,14.465,0,0,0,24,39.1a14.465,14.465,0,0,0,10.625-4.375A14.465,14.465,0,0,0,39,24.1a14.811,14.811,0,0,0-5.5-11.55l2.15-2.1a18,18,0,0,1,4.675,6.1A17.475,17.475,0,0,1,42,24.1a17.292,17.292,0,0,1-1.425,6.975,18.606,18.606,0,0,1-3.85,5.725,18.083,18.083,0,0,1-5.7,3.875A17.414,17.414,0,0,1,24,42.1Z" transform="translate(-6 -5.8)"/></svg>