<svg xmlns="http://www.w3.org/2000/svg" width="34" height="34" viewBox="0 0 34 34"><defs><style>.a{fill-rule:evenodd;}</style></defs><path class="a" d="M56.98-384.045a21.473,21.473,0,0,0,12.243,4.031,1.625,1.625,0,0,1,1.753,1.484,1.715,1.715,0,0,1-1.914,1.359c-6.247-.212-11.786-2.327-15.492-5.524a1.208,1.208,0,0,1-.424-1.271c1.64-5.537,8.584-9.757,16.953-9.757s15.313,4.22,16.953,9.757a1.208,1.208,0,0,1-.424,1.271,21.953,21.953,0,0,1-7.18,4.019,2.077,2.077,0,0,1-2.423-.721,1.319,1.319,0,0,1,.93-1.879,18.665,18.665,0,0,0,5.264-2.769c-1.652-3.97-6.929-6.831-13.12-6.831S58.632-388.016,56.98-384.045ZM70.1-411.169c-5.365,0-9.721,3.378-9.721,7.539s4.356,7.539,9.721,7.539,9.721-3.378,9.721-7.539S75.466-411.169,70.1-411.169Zm0,2.846c3.34,0,6.051,2.1,6.051,4.693s-2.711,4.693-6.051,4.693-6.051-2.1-6.051-4.693S66.761-408.323,70.1-408.323Z" transform="translate(-53.101 411.169)"/></svg>