<svg xmlns="http://www.w3.org/2000/svg" width="45.387" height="48.594" viewBox="0 0 45.387 48.594"><defs><style>.a{fill-rule:evenodd;}</style></defs><path class="a" d="M58.28-372.4a27.44,27.44,0,0,0,16.343,5.762,2.227,2.227,0,0,1,2.34,2.121,2.317,2.317,0,0,1-2.554,1.943c-8.339-.3-15.733-3.326-20.68-7.895a1.8,1.8,0,0,1-.566-1.816c2.19-7.914,11.458-13.945,22.631-13.945s20.441,6.032,22.631,13.945a1.8,1.8,0,0,1-.566,1.816,28.844,28.844,0,0,1-9.585,5.744,2.671,2.671,0,0,1-3.234-1.031,1.915,1.915,0,0,1,1.242-2.686,24.406,24.406,0,0,0,7.026-3.958c-2.206-5.675-9.25-9.763-17.514-9.763S60.485-378.077,58.28-372.4Zm17.514-38.767c-7.162,0-12.977,4.828-12.977,10.775s5.815,10.775,12.977,10.775,12.977-4.828,12.977-10.775S82.956-411.169,75.794-411.169Zm0,4.068c4.458,0,8.078,3.005,8.078,6.707s-3.62,6.707-8.078,6.707-8.078-3.005-8.078-6.707S71.336-407.1,75.794-407.1Z" transform="translate(-53.101 411.169)"/></svg>