<svg xmlns="http://www.w3.org/2000/svg" width="36.3" height="40" viewBox="0 0 36.3 40"><path d="M11.1,44a5.207,5.207,0,0,1-5.25-5.25V32.5H12.2V4l3,3,3-3,2.95,3,3-3,3,3,3-3,3,3,3-3,3,3,3-3V38.75A5.207,5.207,0,0,1,36.9,44Zm25.8-3a2.143,2.143,0,0,0,2.25-2.25V9H15.2V32.5H34.65v6.25A2.143,2.143,0,0,0,36.9,41ZM17.85,16.9v-3h12v3Zm0,6.7v-3h12v3ZM34.5,16.9a1.538,1.538,0,1,1,1.05-.45A1.439,1.439,0,0,1,34.5,16.9Zm0,6.45a1.538,1.538,0,1,1,1.05-.45A1.439,1.439,0,0,1,34.5,23.35ZM11.05,41h20.6V35.5H8.85v3.25a2.2,2.2,0,0,0,.625,1.625A2.135,2.135,0,0,0,11.05,41Zm-2.2,0v0Z" transform="translate(-5.85 -4)"/></svg>